<svg xmlns="http://www.w3.org/2000/svg" xmlns:xlink="http://www.w3.org/1999/xlink" width="2000" height="268" version="1.1" viewBox="0 0 2000 268"><svg width="2000" height="268" x="0" y="0" data-id="lg_3E7WX483mA7vpUGVli" data-version="2" viewBox="0 0 611 268" xml:space="preserve"><rect width="100%" height="100%" fill="transparent"/><path fill="#fff" d="M126.27 264.74q-26.34 0-48.46-8.94-22.11-8.94-38.07-25.02-15.95-16.07-24.89-38.31-8.94-22.23-8.94-49.06 0-14.5 2.53-27.92 2.54-13.41 6.89-25.01 1.94-4.6 1.94-6.53 0-2.42-1.21-4.59-1.21-2.18-2.66-4.59-1.45-2.42-2.66-5.08-1.21-2.66-1.21-6.04 0-10.15 11.6-19.94 11.6-9.79 30.7-17.4 19.09-7.62 43.26-12.33 24.17-4.71 49.55-4.71 31.18 0 56.2 7.97 25.01 7.98 42.54 22.84 17.52 14.87 26.94 36.14 9.43 21.27 9.43 47.85 0 29.73-11.84 55.47-11.85 25.74-32.51 44.6-20.67 18.85-48.7 29.73-28.04 10.87-60.43 10.87m104.9-131.24q0-18.85-6.53-33.84-6.52-14.98-18.85-25.26-12.33-10.27-30.33-15.71-18.01-5.44-40.73-5.44-39.88 0-60.06 20.19-20.18 20.18-20.18 60.06 0 19.33 6.04 35.41 6.04 16.07 16.92 27.55 10.88 11.48 25.98 17.89 15.11 6.4 33.23 6.4 20.79 0 38.19-6.4 17.41-6.41 29.85-18.01 12.45-11.6 19.46-27.67 7.01-16.08 7.01-35.17"/><rect width="273.84" height="255.47" x="-136.92" y="-127.73" fill="none" rx="0" ry="0" transform="translate(143.33 137.5)"/><path fill="#fff" d="M512.97 102.8q-2.9 0-5.07 4.6-9.19 17.88-19.46 32.38-10.27 14.51-20.66 24.66-10.4 10.15-20.55 15.59-10.15 5.43-19.09 5.43-8.7 0-16.08-3.74-7.37-3.75-15.95-14.14-8.58-10.39-19.58-28.76-10.99-18.37-26.95-47.86-2.65-4.83-5.43-7.13t-4.96-2.3q-3.14 0-5.8 6.65-2.66 6.65-4.59 18.61-1.94 11.97-3.02 28.76-1.09 16.8-1.09 37.1 0 12.09 1.33 24.17 1.33 12.09 1.33 24.9 0 4.35-2.42 8.1-2.42 3.74-6.4 6.52-3.99 2.78-9.43 4.47-5.44 1.7-11.48 1.7-12.09 0-17.4-14.51-5.32-14.5-5.32-46.4 0-40.37 4.47-73.36t12.81-56.56q8.34-23.56 19.82-36.49 11.48-12.93 25.74-12.93 12.57 0 24.05 14.38t24.77 46.52q5.32 13.06 11.49 24.42 6.16 11.36 12.32 19.69 6.17 8.34 11.97 13.06 5.8 4.71 10.39 4.71 4.59 0 8.82-2.05 4.23-2.06 9.67-8.95 5.44-6.89 12.81-20.18t18.25-35.53q5.8-11.6 10.39-19.34 4.59-7.73 9.18-12.44 4.6-4.72 9.67-6.77 5.08-2.05 11.36-2.05 7.5 0 14.75 7.97 7.25 7.98 14.14 21.27 6.88 13.29 13.41 30.94 6.53 17.64 12.69 36.98 6.16 19.33 12.08 39.27 5.93 19.94 11.49 37.83 1.45 5.32 2.05 7.37.6 2.06.6 4.96 0 4.11-2.53 8.09-2.54 3.99-6.65 7.13-4.11 3.15-9.31 5.08-5.19 1.93-10.27 1.93-6.77 0-10.51-1.57-3.75-1.57-5.92-5.68-1.21-2.17-4.11-11.6-2.9-9.43-6.89-22.36-3.99-12.93-8.7-27.43-4.72-14.5-9.43-26.71-4.71-12.2-9.06-20.3-4.35-8.1-7.74-8.1"/><rect width="329.19" height="240.25" x="-164.59" y="-120.13" fill="none" rx="0" ry="0" transform="translate(440 122.89)"/></svg></svg>